<mxfile host="app.diagrams.net" modified="2023-10-18T18:49:03.779Z" agent="Mozilla/5.0 (X11; Ubuntu; Linux x86_64; rv:109.0) Gecko/20100101 Firefox/118.0" version="22.0.4" etag="lgAkEAfYqX_kfaQEZ7kU" type="github">
  <diagram name="Page-1" id="hsgVQ6GiS3OYgDz8wU-E">
    <mxGraphModel>
      <root>
        <mxCell id="0" />
        <mxCell id="1" parent="0" />
      </root>
    </mxGraphModel>
  </diagram>
</mxfile>
